<?xml version="1.0" encoding="UTF-8"?>
<!DOCTYPE svg PUBLIC "-//W3C//DTD SVG 1.1//EN" "http://www.w3.org/Graphics/SVG/1.1/DTD/svg11.dtd">
<!-- Creator: CorelDRAW -->
<svg xmlns="http://www.w3.org/2000/svg" xml:space="preserve" width="144.229mm" height="82.5452mm" version="1.1" style="shape-rendering:geometricPrecision; text-rendering:geometricPrecision; image-rendering:optimizeQuality; fill-rule:evenodd; clip-rule:evenodd"
viewBox="0 0 17069.49 9769.22"
 xmlns:xlink="http://www.w3.org/1999/xlink"
 xmlns:xodm="http://www.corel.com/coreldraw/odm/2003">
 <defs>
  <style type="text/css">
   <![CDATA[
    .fil1 {fill:black}
    .fil2 {fill:#03AB02}
    .fil0 {fill:#F7F7F7}
   ]]>
  </style>
 </defs>
 <g id="Слой_x0020_1">
  <metadata id="CorelCorpID_0Corel-Layer"/>
  <rect class="fil0" width="17069.49" height="9769.22"/>
  <g id="_105553351055776">
   <path class="fil1" d="M8814.85 4386.49l-807.93 0 0 365.18 604.74 0 0 278.47 -604.74 0 0 365.22 807.93 0 0 294.48 -1159.51 0 0 -1597.81 1159.51 0 0 294.47zm1568.15 -294.51l0 1597.81 -356.02 0 -648.26 -1018.98 0 1018.98 -351.45 0 0 -1597.81 355.98 0 645.93 1023.43 0 -1023.43 353.82 0zm1428.86 515.88c-44.19,-80.62 -100.11,-139.64 -167.76,-176.92 -67.74,-37.28 -143.45,-55.87 -227.16,-55.87 -88.21,0 -167.71,22.45 -238.51,67.4 -70.83,44.82 -126.24,106.04 -166.61,183.69 -40.38,77.57 -60.55,165.9 -60.55,264.77 0,103.46 19.84,193.61 59.45,270.42 39.52,76.93 95.02,137 166.61,180.38 71.47,43.39 155.13,65.03 251.01,65.03 59.44,0 114.09,-10.3 164.38,-30.84 50.16,-20.55 95.14,-49.06 134.67,-85.61 39.48,-36.52 73.08,-78.29 100.44,-125.49l0 -73.16 -410.89 0 0 -278.45 741.79 0 0 415.55c-36.56,83.71 -89.72,161.65 -159.71,233.88 -70.06,72.32 -154.46,130.95 -253.42,175.77 -98.87,44.87 -211.48,67.4 -337.72,67.4 -118.79,0 -227.54,-19.82 -326.42,-59.35 -98.95,-39.61 -184.96,-95.86 -257.91,-168.94 -73.08,-73 -129.72,-159.42 -170.09,-259.06 -40.29,-99.72 -60.45,-208.85 -60.45,-327.52 0,-118.7 20.17,-227.84 60.45,-327.56 40.37,-99.69 96.63,-185.98 168.86,-259.01 72.32,-73.13 157.94,-129.38 256.82,-168.99 98.95,-39.53 207.7,-59.35 326.41,-59.35 111.08,0 215.68,17.49 313.88,52.52 98.16,35.04 183.74,85.58 256.72,151.75 73.08,66.26 127.1,146.54 162.01,240.84l-326.29 86.73zm1476.69 -9.07c0,-65.49 -19.36,-117.19 -58.13,-155.23 -38.8,-38.04 -99.34,-57.07 -181.48,-57.07l-326.42 0 0 426.86 326.42 0c54.72,0 99.64,-8.43 134.67,-25.13 34.95,-16.77 61.31,-41.52 78.75,-74.22 17.5,-32.7 26.19,-71.13 26.19,-115.23zm-221.4 -506.81c129.33,0 236.98,23.26 322.98,69.6 85.96,46.44 150.27,108.03 192.85,184.92 42.62,76.86 63.92,160.86 63.92,252.24 0,62.36 -11.02,123.62 -33.09,183.74 -22.02,60.06 -56.22,114.85 -102.68,164.28 -45.88,48.84 -105.02,87.73 -177.64,116.5l345.4 626.52 -390.34 0 -303.84 -582.13 -262.19 0 0 582.13 -351.45 0 0 -1597.81 696.09 0zm824.06 0l351.45 0 0 1597.68 -351.45 0 0 -1597.68zm-7790.16 -1.14l1342.14 0 0 294.47 -495.28 0 0 1303.25 -351.58 0 0 -1303.25 -495.27 0 0 -294.47z"/>
   <path class="fil2" d="M2826.82 4385.47l831.89 0 998.1 757.98 0 -757.98 831.82 0 0 -831.77 -2661.82 0 0 831.77zm831.86 1830.01l998.09 0 -998.09 -757.98 0 757.98z"/>
  </g>
 </g>
</svg>
